<svg xmlns="http://www.w3.org/2000/svg" xmlns:xlink="http://www.w3.org/1999/xlink" width="104" height="104"><defs><clipPath id="a"><use xlink:href="#SVGID_2_" overflow="visible"/></clipPath><clipPath id="b"><use xlink:href="#SVGID_2_" overflow="visible"/></clipPath></defs><path d="M36.177 65.934c-2.085 0-3.981-1.707-3.981-3.792 0-2.086 1.706-3.793 3.981-3.793 2.276 0 3.982 1.707 3.982 3.793 0 2.085-1.896 3.792-3.982 3.792zm48.919-20.667c-.38-3.034-2.276-5.499-4.74-7.395l-.949-.758-.758.948c-1.517 1.706-2.086 4.74-1.896 7.015.19 1.707.758 3.413 1.706 4.74-.758.38-1.706.759-2.464 1.138-1.707.569-3.413.758-5.12.758H21.767l-.19 1.138c-.378 3.602.19 7.395 1.707 10.807l.759 1.328v.19c4.55 7.583 12.703 10.996 21.615 10.996 17.064 0 31.095-7.394 37.731-23.321 4.361.19 8.722-.948 10.808-5.12l.568-.947-.948-.57c-2.464-1.516-5.877-1.706-8.721-.947zm-24.46-3.034h-7.394v7.395h7.394zm0-9.29h-7.394v7.394h7.394zm0-9.48h-7.394v7.394h7.394zm9.102 18.77h-7.395v7.395h7.395zm-27.493 0H34.85v7.395h7.395zm9.29 0h-7.394v7.395h7.394zm-18.391 0h-7.395v7.395h7.395zm18.391-9.29h-7.394v7.394h7.394zm-9.29 0H34.85v7.394h7.395z" class="st0" fill="#061d2f"/><g clip-path="url(#a)" class="st1" transform="matrix(3.43188 0 0 3.43188 351.139 -107.788)"><path d="M-48.8-21H1226v151.4H-48.8z" class="st0" fill="#061d2f"/></g><path d="M48.746 12.252c.003-4.12 6.185-4.12 6.183 0-.003 4.119-6.185 4.119-6.183 0M11.87 40.24c.001-4.12 6.184-4.12 6.183 0-.002 4.12-6.184 4.12-6.183 0m73.754.144c0-4.122 6.182-4.122 6.182 0s-6.182 4.122-6.182 0M25.845 83.801c0-4.122 6.182-4.122 6.182 0 0 4.121-6.182 4.121-6.182 0m45.802.144c.001-4.12 6.184-4.12 6.183 0-.001 4.12-6.184 4.12-6.183 0M44.941 14.261l4.76 4.994a2.815 2.815 0 0 0 3.985.091l5.326-5.094a38.059 38.059 0 0 1 26.055 18.556l-3.647 8.235a2.826 2.826 0 0 0 1.435 3.724l7.02 3.118C91.068 62.5 84.81 72.562 79.14 78.34l-6.538-1.405a2.818 2.818 0 0 0-3.347 2.168l-1.551 7.241a38.059 38.059 0 0 1-31.74-.152l-1.55-7.241a2.817 2.817 0 0 0-3.346-2.167l-6.392 1.372c-6.355-5.678-12.11-18.645-10.518-30.578l6.659-2.959a2.823 2.823 0 0 0 1.433-3.724l-3.304-8.087c4.61-8.758 15.116-16.727 25.994-18.547zm54.027 33.758l-.124-1.273 3.756-3.503c.763-.713.478-2.146-.499-2.51l-4.8-1.795-.377-1.24 2.995-4.159c.61-.845.05-2.195-.979-2.364l-5.062-.824-.609-1.136 2.128-4.67c.435-.95-.374-2.167-1.42-2.128l-5.139.18-.812-.985 1.181-5.005c.239-1.017-.793-2.049-1.81-1.81l-5.003 1.18-.987-.812.18-5.138c.04-1.04-1.177-1.853-2.126-1.422l-4.669 2.129-1.137-.61-.825-5.063c-.167-1.027-1.518-1.588-2.363-.98l-4.163 2.996-1.237-.375L63.272 1.9c-.364-.979-1.799-1.26-2.509-.5L57.26 5.157l-1.273-.124L53.282.662c-.547-.885-2.012-.885-2.557 0l-2.706 4.372-1.274.124-3.504-3.759c-.71-.76-2.144-.478-2.508.5l-1.795 4.803-1.239.375-4.161-2.995c-.846-.61-2.197-.048-2.364.979l-.826 5.063-1.137.61-4.668-2.129c-.95-.433-2.167.381-2.127 1.422l.18 5.138-.988.811-5.003-1.18c-1.017-.236-2.05.794-1.81 1.81l1.178 5.006-.81.984-5.138-.179c-1.036-.03-1.853 1.177-1.421 2.128l2.128 4.67-.61 1.136-5.062.824c-1.028.167-1.585 1.519-.979 2.364l2.995 4.16-.376 1.239-4.802 1.795c-.974.364-1.26 1.797-.498 2.51l3.757 3.503-.125 1.273-4.37 2.705c-.885.547-.885 2.012 0 2.557l4.37 2.706.125 1.273L1.4 60.764c-.762.71-.476 2.142.498 2.508L6.7 65.067l.376 1.24-2.995 4.16c-.608.847-.048 2.198.98 2.363l5.062.824.61 1.139-2.129 4.667c-.434.95.385 2.17 1.421 2.128l5.136-.18.812.986-1.179 5.006c-.238 1.015.794 2.045 1.81 1.806l5.004-1.178.987.81-.179 5.139c-.04 1.04 1.178 1.854 2.127 1.42l4.668-2.128 1.137.61.826 5.06c.167 1.031 1.518 1.588 2.364.981l4.16-2.996 1.239.377 1.795 4.8c.364.974 1.798 1.262 2.508.498l3.504-3.757 1.274.128 2.706 4.37c.545.881 2.01.883 2.557 0l2.705-4.37 1.273-.128 3.503 3.757c.71.764 2.145.476 2.509-.498l1.795-4.8 1.24-.377 4.16 2.996c.845.607 2.196.048 2.363-.98l.825-5.06 1.137-.61 4.669 2.127c.949.434 2.164-.378 2.126-1.42l-.179-5.14.986-.81 5.004 1.18c1.016.238 2.048-.792 1.81-1.807l-1.18-5.006.81-.986 5.138.18c1.037.042 1.856-1.179 1.42-2.128l-2.127-4.667.609-1.14 5.062-.823c1.03-.165 1.59-1.516.979-2.363l-2.995-4.16.376-1.24 4.801-1.795c.977-.366 1.262-1.798.499-2.508l-3.756-3.504.124-1.273 4.37-2.706c.886-.545.887-2.01.001-2.557z"/></svg>